<svg width="103" height="80" viewBox="0 0 103 80" fill="none" xmlns="http://www.w3.org/2000/svg">
<path fill-rule="evenodd" clip-rule="evenodd" d="M0 51.2364C0 49.7265 0.599789 48.2785 1.66742 47.2109C2.73505 46.1432 4.18307 45.5434 5.69293 45.5434H74.0081C78.5377 45.5434 82.8817 43.7441 86.0846 40.5412C89.2875 37.3383 91.0869 32.9942 91.0869 28.4646V5.69293C91.0869 4.18307 91.6867 2.73505 92.7543 1.66742C93.8219 0.59979 95.2699 0 96.7798 0C98.2897 0 99.7377 0.59979 100.805 1.66742C101.873 2.73505 102.473 4.18307 102.473 5.69293V28.4646C102.473 36.0139 99.4738 43.254 94.1356 48.5922C88.7975 53.9303 81.5574 56.9293 74.0081 56.9293H5.69293C4.18307 56.9293 2.73505 56.3295 1.66742 55.2619C0.599789 54.1942 0 52.7462 0 51.2364Z" fill="white"/>
<path fill-rule="evenodd" clip-rule="evenodd" d="M1.66681 55.2609C0.599553 54.1933 0 52.7456 0 51.236C0 49.7264 0.599553 48.2787 1.66681 47.2111L24.4385 24.4394C25.5122 23.4024 26.9503 22.8286 28.4429 22.8415C29.9356 22.8545 31.3635 23.4532 32.419 24.5087C33.4745 25.5642 34.0732 26.9921 34.0862 28.4848C34.0992 29.9774 33.5253 31.4155 32.4883 32.4892L13.7415 51.236L32.4883 69.9828C33.0321 70.508 33.4658 71.1362 33.7641 71.8307C34.0625 72.5253 34.2195 73.2723 34.2261 74.0282C34.2327 74.7841 34.0886 75.5337 33.8024 76.2334C33.5161 76.933 33.0934 77.5687 32.5589 78.1032C32.0244 78.6377 31.3887 79.0604 30.6891 79.3467C29.9895 79.6329 29.2398 79.777 28.4839 79.7704C27.728 79.7638 26.981 79.6068 26.2864 79.3084C25.5919 79.01 24.9637 78.5764 24.4385 78.0326L1.66681 55.2609Z" fill="white"/>
</svg>
